<svg width="178" height="69" viewBox="0 0 178 69" fill="none" xmlns="http://www.w3.org/2000/svg">
<path d="M63.6696 48.6236H63.108C62.8941 48.6236 62.7871 48.5033 62.7871 48.2626V28.5261C62.7871 28.2854 62.8941 28.1651 63.108 28.1651H63.6696C63.8836 28.1651 63.9906 28.2854 63.9906 28.5261V30.2511H64.151C64.8998 28.8604 66.3172 28.1651 68.4032 28.1651H71.3717C73.003 28.1651 74.3 28.6598 75.2628 29.6493C76.2523 30.6388 76.747 31.9626 76.747 33.6207V48.2626C76.747 48.5033 76.6401 48.6236 76.4261 48.6236H75.8645C75.6506 48.6236 75.5436 48.5033 75.5436 48.2626V33.6608C75.5436 32.2969 75.1826 31.2272 74.4605 30.4516C73.7384 29.6761 72.7088 29.2883 71.3717 29.2883H68.4834C67.1462 29.2883 66.0631 29.6493 65.2341 30.3714C64.4051 31.0935 63.9906 32.1231 63.9906 33.4602V48.2626C63.9906 48.5033 63.8836 48.6236 63.6696 48.6236Z" fill="#F5F5F5"/>
<path d="M83.1626 24.8356V20.8642C83.1626 20.6235 83.2695 20.5032 83.4835 20.5032H84.0451C84.259 20.5032 84.366 20.6235 84.366 20.8642V24.8356C84.366 25.0763 84.259 25.1966 84.0451 25.1966H83.4835C83.2695 25.1966 83.1626 25.0763 83.1626 24.8356ZM83.1626 48.2626V28.5261C83.1626 28.2854 83.2695 28.1651 83.4835 28.1651H84.0451C84.259 28.1651 84.366 28.2854 84.366 28.5261V48.2626C84.366 48.5033 84.259 48.6236 84.0451 48.6236H83.4835C83.2695 48.6236 83.1626 48.5033 83.1626 48.2626Z" fill="#F5F5F5"/>
<path d="M91.9957 29.2883H89.3481C89.1074 29.2883 88.987 29.1813 88.987 28.9674V28.486C88.987 28.2721 89.1074 28.1651 89.3481 28.1651H91.9957C92.2363 28.1651 92.3567 28.0581 92.3567 27.8442V24.7152C92.3567 24.4745 92.4637 24.3542 92.6776 24.3542H93.2392C93.4532 24.3542 93.5601 24.4745 93.5601 24.7152V27.8442C93.5601 28.0581 93.6805 28.1651 93.9212 28.1651H99.096C99.3366 28.1651 99.457 28.2721 99.457 28.486V28.9674C99.457 29.1813 99.3366 29.2883 99.096 29.2883H93.9212C93.6805 29.2883 93.5601 29.3953 93.5601 29.6092V43.2482C93.5601 44.5854 93.9479 45.6284 94.7235 46.3772C95.5257 47.126 96.6088 47.5004 97.9727 47.5004H99.4971C99.7378 47.5004 99.8581 47.6074 99.8581 47.8213V48.3027C99.8581 48.5166 99.7378 48.6236 99.4971 48.6236H97.9727C96.3147 48.6236 94.9641 48.1422 93.9212 47.1795C92.8782 46.2167 92.3567 44.9197 92.3567 43.2883V29.6092C92.3567 29.3953 92.2363 29.2883 91.9957 29.2883Z" fill="#F5F5F5"/>
<path d="M118.058 48.6236H109.835C108.203 48.6236 106.893 48.1289 105.904 47.1394C104.941 46.1499 104.459 44.8261 104.459 43.168V33.6207C104.459 31.9626 104.941 30.6388 105.904 29.6493C106.893 28.6598 108.203 28.1651 109.835 28.1651H113.365C114.996 28.1651 116.293 28.6598 117.256 29.6493C118.246 30.6388 118.74 31.9626 118.74 33.6207V38.7153C118.74 38.9827 118.62 39.1164 118.379 39.1164H106.024C105.783 39.1164 105.663 39.2234 105.663 39.4373V43.1279C105.663 44.4918 106.024 45.5615 106.746 46.3371C107.468 47.1126 108.498 47.5004 109.835 47.5004H118.058C118.299 47.5004 118.419 47.6074 118.419 47.8213V48.3027C118.419 48.5166 118.299 48.6236 118.058 48.6236ZM106.024 37.9932H117.176C117.416 37.9932 117.537 37.8862 117.537 37.6723V33.6608C117.537 32.2969 117.176 31.2272 116.454 30.4516C115.732 29.6761 114.702 29.2883 113.365 29.2883H109.835C108.498 29.2883 107.468 29.6761 106.746 30.4516C106.024 31.2272 105.663 32.2969 105.663 33.6608V37.6723C105.663 37.8862 105.783 37.9932 106.024 37.9932Z" fill="#F5F5F5"/>
<path d="M137.965 48.6238H125.088C124.714 48.6238 124.526 48.4366 124.526 48.0622V23.3916C124.526 23.0172 124.714 22.83 125.088 22.83H126.893C127.268 22.83 127.455 23.0172 127.455 23.3916V45.6152C127.455 45.8558 127.588 45.9762 127.856 45.9762H137.965C138.339 45.9762 138.526 46.1768 138.526 46.5779V48.0622C138.526 48.4366 138.339 48.6238 137.965 48.6238Z" fill="#C27698"/>
<path d="M149.846 48.6238H147.76C145.914 48.6238 144.457 48.1023 143.387 47.0593C142.344 46.0163 141.823 44.5588 141.823 42.6868V34.1022C141.823 32.2302 142.344 30.7727 143.387 29.7297C144.457 28.6867 145.914 28.1652 147.76 28.1652H156.465C156.839 28.1652 157.026 28.3524 157.026 28.7268V48.0622C157.026 48.4366 156.839 48.6238 156.465 48.6238H154.659C154.285 48.6238 154.098 48.4366 154.098 48.0622V46.4977H153.937C153.269 47.9151 151.905 48.6238 149.846 48.6238ZM154.098 42.3659V31.0936C154.098 30.8529 153.964 30.7326 153.697 30.7326H148.081C145.861 30.7326 144.751 31.8959 144.751 34.2226V42.5664C144.751 44.8931 145.861 46.0564 148.081 46.0564H150.367C151.571 46.0564 152.493 45.7355 153.135 45.0937C153.777 44.4518 154.098 43.5426 154.098 42.3659Z" fill="#C27698"/>
<path d="M165.885 46.0564H171.581C173.854 46.0564 174.991 44.8931 174.991 42.5664V33.9819C174.991 31.6552 173.854 30.4919 171.581 30.4919H169.214C168.011 30.4919 167.088 30.8128 166.447 31.4546C165.805 32.0965 165.484 32.9924 165.484 34.1423V45.6954C165.484 45.9361 165.618 46.0564 165.885 46.0564ZM162.555 48.0622V20.9847C162.555 20.6103 162.743 20.4231 163.117 20.4231H164.922C165.297 20.4231 165.484 20.6103 165.484 20.9847V30.0506H165.644C166.313 28.6332 167.677 27.9246 169.736 27.9246H171.982C173.801 27.9246 175.232 28.446 176.275 29.489C177.344 30.532 177.879 31.9761 177.879 33.8214V42.6868C177.879 44.5588 177.344 46.0163 176.275 47.0593C175.232 48.1023 173.801 48.6238 171.982 48.6238H163.117C162.743 48.6238 162.555 48.4366 162.555 48.0622Z" fill="#C27698"/>
<path fill-rule="evenodd" clip-rule="evenodd" d="M11.9975 26.2256C11.1926 26.2256 10.54 26.8781 10.54 27.6831V28.722C10.54 29.527 11.1926 30.1795 11.9975 30.1795H15.8693C17.9936 30.4858 17.3585 32.2934 16.1553 34.3799L1.13788 57.9478C-1.91155 62.7334 1.52598 68.9999 7.20064 68.9999H37.334C43.0086 68.9999 46.4462 62.7334 43.3967 57.9478L28.8303 35.0877C27.247 32.2728 26.5757 30.4235 28.7049 30.1795H32.4466C33.2516 30.1795 33.9041 29.527 33.9041 28.722V27.6831C33.9041 26.8781 33.2516 26.2256 32.4466 26.2256H11.9975Z" fill="#323232"/>
<circle cx="22.3838" cy="19.051" r="4.67282" fill="#C27698"/>
<circle cx="16.4529" cy="7.7283" r="3.7742" fill="#C27698"/>
<circle cx="23.4623" cy="1.79724" r="1.79724" fill="#C27698"/>
<path d="M21.2379 44.9011C20.6073 45.5677 19.714 46.2141 18.5578 46.8403C17.9905 47.1476 17.7575 47.8544 18.0688 48.4194C18.3596 48.9471 19.0186 49.1516 19.543 48.8549C23.7607 46.4684 26.1428 43.356 26.6892 39.5178C26.9371 37.7769 26.7559 36.2231 26.1457 34.8566C25.4415 33.343 24.2443 32.4659 22.554 32.2252C21.2957 32.0461 20.223 32.3135 19.3357 33.0275C18.4672 33.7442 17.9343 34.7952 17.7371 36.1805C17.5399 37.5657 17.7556 38.7424 18.3842 39.7105C19.0128 40.6785 19.9469 41.2508 21.1864 41.4273C21.5995 41.4861 22.2715 41.4767 23.2023 41.3992C22.7047 42.8753 22.0499 44.0427 21.2379 44.9011Z" fill="#C27698"/>
<path fill-rule="evenodd" clip-rule="evenodd" d="M38.9154 58.372C36.4788 53.2146 28.7128 56.862 25.3855 58.372C18.3253 61.5761 11.6034 62.1105 8.49356 62.1105H7.80259C7.09637 62.1105 6.62117 62.8338 6.90156 63.482V63.482C7.0373 63.7958 7.32654 64.0164 7.66508 64.0643L10.232 64.4274C13.0056 64.4274 17.4028 65.5342 22.9501 65.5342C28.4974 65.5342 32.0828 65.5342 34.8565 65.5342C34.8565 65.5342 34.8565 65.5342 34.8565 65.5342C34.8565 65.5342 38.1037 65.5342 38.9154 63.9872C39.7272 62.4402 40.4037 61.5221 38.9154 58.372Z" fill="#6F4368"/>
<path fill-rule="evenodd" clip-rule="evenodd" d="M5.23234 59.2551C6.21965 56.7579 7.99143 56.2203 9.27894 56.1994C10.3312 56.1823 11.349 56.5395 12.3534 56.8536C16.5637 58.1701 21.5618 60.5674 28.0513 62.3518C30.8257 63.201 32.3883 63.0792 33.9233 62.9107C36.137 62.6676 37.7052 61.856 39.3109 60.9608C39.4537 60.8812 39.6431 60.7434 39.7004 60.8965C39.752 61.0347 39.7952 61.3329 39.7952 61.944C39.7952 63.463 38.549 65.5344 35.8799 65.5344C33.2108 65.5344 33.4497 65.5344 33.4497 65.5344H21.4337V65.5344C15.9685 65.5344 14.9029 65.5344 12.1703 65.5344C12.1703 65.5344 12.1703 65.5344 12.1703 65.5344C12.1703 65.5344 11.198 65.5344 9.50117 65.5344C9.03144 65.5344 7.63417 65.5344 6.56518 64.8439C5.49618 64.1535 4.36375 61.4521 5.23234 59.2551Z" fill="#C27698"/>
</svg>
